<?xml version="1.0" encoding="UTF-8"?><!DOCTYPE svg PUBLIC "-//W3C//DTD SVG 1.1//EN" "http://www.w3.org/Graphics/SVG/1.1/DTD/svg11.dtd"><svg xmlns="http://www.w3.org/2000/svg" xmlns:xlink="http://www.w3.org/1999/xlink"><symbol id="icon-arrow-down" viewBox="0 0 24 24"><path fill-rule="evenodd" clip-rule="evenodd" d="M5.363 8.363a.9.9 0 011.273 0L12 13.727l5.363-5.364a.9.9 0 111.273 1.273l-5.788 5.788a1.2 1.2 0 01-1.697 0L5.363 9.636a.9.9 0 010-1.273z"/></symbol><symbol id="icon-arrow-right" viewBox="0 0 20 20"><path d="M17.317 11.693l-5.625 5.624a.625.625 0 11-.884-.884l4.558-4.558H3.125a.625.625 0 110-1.25h12.241l-4.558-4.557a.625.625 0 11.884-.885l5.625 5.625a.625.625 0 010 .885z"/></symbol><symbol id="icon-chevron-down" viewBox="0 0 20 20"><path fill-rule="evenodd" clip-rule="evenodd" d="M4.47 6.97a.75.75 0 011.06 0L10 11.44l4.47-4.47a.75.75 0 111.06 1.06l-4.823 4.824a1 1 0 01-1.414 0L4.47 8.03a.75.75 0 010-1.06z"/></symbol><symbol id="icon-coins" viewBox="0 0 23 24"><path d="M16.531 8.397v-.522c0-2.351-3.398-4.125-7.906-4.125C4.118 3.75.719 5.524.719 7.875v3.75c0 1.958 2.358 3.515 5.75 3.98v.52c0 2.351 3.399 4.125 7.906 4.125 4.508 0 7.906-1.774 7.906-4.125v-3.75c0-1.94-2.284-3.499-5.75-3.978zm4.313 3.978c0 1.24-2.767 2.625-6.469 2.625-.335 0-.668-.012-.995-.035 1.938-.737 3.151-1.934 3.151-3.34V9.913c2.684.417 4.313 1.55 4.313 2.462zm-14.375 1.71v-2.23c.715.098 1.435.146 2.156.145.721.001 1.441-.047 2.156-.144v2.23c-.714.11-1.434.165-2.156.164-.722 0-1.442-.054-2.156-.164zm8.625-3.78v1.32c0 .787-1.115 1.631-2.875 2.144v-2.19c1.16-.294 2.142-.731 2.875-1.273zM8.625 5.25c3.703 0 6.469 1.386 6.469 2.625 0 1.24-2.766 2.625-6.469 2.625-3.702 0-6.469-1.386-6.469-2.625 0-1.24 2.767-2.625 6.469-2.625zm-6.469 6.375v-1.32c.733.543 1.715.98 2.875 1.273v2.191c-1.76-.513-2.875-1.357-2.875-2.144zm5.75 4.5v-.39a16.602 16.602 0 001.742-.017c.372.138.75.256 1.133.352v2.2c-1.76-.514-2.875-1.358-2.875-2.145zm4.313 2.46V16.35a15.824 15.824 0 004.312.006v2.23c-1.43.219-2.882.219-4.312 0zm5.75-.316v-2.19c1.16-.294 2.142-.731 2.875-1.273v1.319c0 .787-1.115 1.631-2.875 2.144z"/></symbol><symbol id="icon-facebook" viewBox="0 0 25 24"><path d="M9.846 5.865v2.748H7.832v3.36h2.014v9.986h4.134v-9.985h2.775s.26-1.611.386-3.373h-3.144V6.303c0-.343.45-.805.896-.805h2.254V2h-3.064c-4.34 0-4.237 3.363-4.237 3.865z"/></symbol><symbol id="icon-home" viewBox="0 0 17 18"><path d="M16.542 7.178L9.46.385a1.404 1.404 0 00-1.916-.01l-.01.01L.458 7.178A1.44 1.44 0 000 8.238v8.322c0 .382.15.748.415 1.018.266.27.626.422 1.002.422h4.25c.375 0 .736-.152 1.001-.422.266-.27.415-.636.415-1.018v-4.32h2.834v4.32c0 .382.149.748.415 1.018.265.27.626.422 1.001.422h4.25c.376 0 .736-.152 1.002-.422S17 16.942 17 16.56V8.239a1.46 1.46 0 00-.458-1.06zm-.959 9.382h-4.25v-4.32c0-.382-.149-.749-.415-1.019a1.405 1.405 0 00-1.001-.422H7.083c-.375 0-.736.152-1.001.422-.266.27-.415.637-.415 1.018v4.32h-4.25V8.24l.01-.01L8.5 1.44l7.075 6.789.01.009-.002 8.323z"/></symbol><symbol id="icon-instagram" viewBox="0 0 25 24"><path d="M13.828 2.001c.73-.003 1.46.005 2.189.022l.194.007c.224.008.445.018.712.03 1.064.05 1.79.218 2.427.465.66.254 1.216.598 1.772 1.154a4.91 4.91 0 011.153 1.771c.247.637.415 1.364.465 2.428.012.266.022.488.03.712l.006.194c.018.73.025 1.459.023 2.188l.001.746v1.31c.002.73-.005 1.46-.023 2.19l-.006.193c-.008.224-.018.445-.03.712-.05 1.064-.22 1.79-.466 2.427a4.884 4.884 0 01-1.153 1.772c-.5.509-1.105.902-1.772 1.153-.637.247-1.363.415-2.427.465-.267.012-.488.022-.712.03l-.194.006c-.73.018-1.46.026-2.189.023l-.746.001h-1.309c-.73.003-1.46-.005-2.189-.023l-.194-.006a60.412 60.412 0 01-.712-.03c-1.064-.05-1.79-.22-2.428-.466a4.888 4.888 0 01-1.771-1.153 4.904 4.904 0 01-1.154-1.772c-.247-.637-.415-1.363-.465-2.427a74.83 74.83 0 01-.03-.712l-.005-.194c-.018-.73-.027-1.459-.025-2.189v-2.056c-.003-.73.005-1.459.022-2.188l.007-.194c.008-.224.018-.446.03-.712.05-1.065.218-1.79.465-2.428A4.88 4.88 0 014.48 3.68a4.897 4.897 0 011.77-1.155c.638-.247 1.363-.415 2.428-.465l.712-.03.194-.005c.73-.018 1.459-.027 2.188-.025l2.056.001zm-1.028 5a5 5 0 100 10 5 5 0 000-10zm0 2a3 3 0 11.001 6 3 3 0 110-6H12.8zm5.25-3.5a1.25 1.25 0 000 2.498 1.25 1.25 0 000-2.5v.002z"/></symbol><symbol id="icon-piggy-bank" viewBox="0 0 20 16"><path d="M15.484 7c0 .198-.057.391-.163.556a.976.976 0 01-.434.368.94.94 0 01-1.055-.217 1.03 1.03 0 01-.21-1.09.994.994 0 01.357-.448.945.945 0 011.221.124c.182.187.284.442.284.707zm-3.226-4.333H9.032a.635.635 0 00-.456.195.678.678 0 000 .943.635.635 0 00.456.195h3.226c.171 0 .335-.07.456-.195a.678.678 0 000-.943.635.635 0 00-.456-.195zm7.742 4v2.666c0 .53-.204 1.04-.567 1.415a1.904 1.904 0 01-1.369.585h-.19l-1.307 3.782a1.33 1.33 0 01-.472.642 1.262 1.262 0 01-.743.243h-1.026c-.266 0-.526-.085-.744-.243a1.33 1.33 0 01-.472-.642l-.154-.448H8.335l-.155.448a1.33 1.33 0 01-.472.642 1.262 1.262 0 01-.743.243H5.939c-.266 0-.526-.085-.744-.243a1.33 1.33 0 01-.472-.642l-1.013-2.93a7.426 7.426 0 01-1.73-4.032 1.309 1.309 0 00-.504.491 1.367 1.367 0 00-.186.69.678.678 0 01-.189.47.635.635 0 01-.456.196.635.635 0 01-.456-.195A.678.678 0 010 9.333a2.724 2.724 0 01.549-1.64c.355-.467.85-.8 1.41-.943A7.44 7.44 0 014.22 1.948 6.982 6.982 0 019.032 0h8.387c.171 0 .336.07.456.195a.678.678 0 010 .943.634.634 0 01-.456.195h-1.725a7.283 7.283 0 012.534 3.334c.485.042.936.271 1.264.642.328.37.51.855.508 1.358zm-1.29 0a.678.678 0 00-.19-.472.635.635 0 00-.456-.195h-.295a.631.631 0 01-.382-.129.666.666 0 01-.234-.338 5.99 5.99 0 00-2.103-3.039 5.674 5.674 0 00-3.437-1.16h-2.58c-1.128 0-2.23.338-3.174.974a5.953 5.953 0 00-2.142 2.609 6.183 6.183 0 00-.414 3.393 6.083 6.083 0 001.448 3.077.671.671 0 01.132.226l1.056 3.054h1.026l.308-.891a.665.665 0 01.235-.32.631.631 0 01.372-.123h5.53c.133 0 .263.043.372.122.109.08.191.191.236.32l.308.892h1.026l1.46-4.224a.665.665 0 01.236-.321.631.631 0 01.371-.122h.645c.172 0 .336-.07.457-.195a.678.678 0 00.189-.472V6.667z"/></symbol><symbol id="icon-search" viewBox="0 0 32 32"><path d="M21.302 19.295h-1.053l-.374-.36a8.667 8.667 0 001.974-7.12c-.627-3.706-3.72-6.666-7.454-7.12a8.673 8.673 0 00-9.693 9.694c.453 3.733 3.413 6.826 7.12 7.453a8.667 8.667 0 007.12-1.973l.36.373v1.053l5.667 5.667c.546.547 1.44.547 1.986 0a1.408 1.408 0 000-1.987l-5.653-5.68zm-8 0c-3.32 0-6-2.68-6-6s2.68-6 6-6 6 2.68 6 6-2.68 6-6 6z"/></symbol><symbol id="icon-twitter" viewBox="0 0 25 24"><path d="M14.608 10.469L21.68 2h-1.676l-6.142 7.353L8.958 2H3.3l7.418 11.12L3.3 22h1.676l6.486-7.765L16.642 22H22.3l-7.692-11.531zm-2.296 2.748l-.752-1.107L5.58 3.3h2.575l4.826 7.11.751 1.107 6.273 9.242h-2.574l-5.12-7.541.001-.001z"/></symbol><symbol id="icon-youtube" viewBox="0 0 25 24"><path d="M10.8 15l5.19-3-5.19-3v6zm11.56-7.83c.13.47.22 1.1.28 1.9.07.8.1 1.49.1 2.09l.06.84c0 2.19-.16 3.8-.44 4.83-.25.9-.83 1.48-1.73 1.73-.47.13-1.33.22-2.65.28-1.3.07-2.49.1-3.59.1L12.8 19c-4.19 0-6.8-.16-7.83-.44-.9-.25-1.48-.83-1.73-1.73-.13-.47-.22-1.1-.28-1.9-.07-.8-.1-1.49-.1-2.09L2.8 12c0-2.19.16-3.8.44-4.83.25-.9.83-1.48 1.73-1.73.47-.13 1.33-.22 2.65-.28 1.3-.07 2.49-.1 3.59-.1L12.8 5c4.19 0 6.8.16 7.83.44.9.25 1.48.83 1.73 1.73z"/></symbol></svg>